<svg width="16" height="16" viewBox="0 0 16 16" fill="none" xmlns="http://www.w3.org/2000/svg">
<path fill-rule="evenodd" clip-rule="evenodd" d="M7.99998 3.33334C7.63179 3.33334 7.33331 3.63182 7.33331 4.00001V7.33334H3.99998C3.63179 7.33334 3.33331 7.63182 3.33331 8.00001C3.33331 8.3682 3.63179 8.66668 3.99998 8.66668H7.33331V12C7.33331 12.3682 7.63179 12.6667 7.99998 12.6667C8.36817 12.6667 8.66665 12.3682 8.66665 12V8.66668H12C12.3682 8.66668 12.6666 8.3682 12.6666 8.00001C12.6666 7.63182 12.3682 7.33334 12 7.33334H8.66665V4.00001C8.66665 3.63182 8.36817 3.33334 7.99998 3.33334Z" fill="#110F24"/>
</svg>
